# xmcd
#
# Track frame offsets:
#	150
#	12480
#	45987
#	58020
#	69450
#	101670
#	113710
#	127430
#	141062
#	153542
#	166435
#	178822
#	192285
#	205990
#	215662
#
# Disc length: 3059
#
# Revision: 2
# Processed by: cddbd v1.5.1PL0 Copyright (c) Steve Scherf et al.
# Submitted via: audiograbber 1.80.04
# Normalized: r1:DSETVAR1
#
DISCID=e50bf10f
DTITLE=Various Artist - Blues Story #16
DYEAR=1998
DGENRE=Blues
TTITLE0=Bo Diddley - Bo Diddley
TTITLE1=Howlin' Wolf - Big House
TTITLE2=Koko Taylor - I'm A little Mixed Up
TTITLE3=Sonny Boy Williamson - Bye Bye Bird
TTITLE4=Buddy Guy - Stone Crazy
TTITLE5=Otis Rush - You Know My Love
TTITLE6=Willie Dixon - Walkin' The Blues
TTITLE7=Muddy Waters - I'm Ready
TTITLE8=Jimmy Rogers - Walking By Myself
TTITLE9=J.B. Lenoir - Eisenhower Blues
TTITLE10=Little Walter - Dead Presidents
TTITLE11=Memphis Slim - Slim's Blues
TTITLE12=Robert Nighthawk - Someday
TTITLE13=Chuck Berry - Confessin' The Blues
TTITLE14=John Lee Hooker - Worried Life Blues
EXTD=
EXTT0=
EXTT1=
EXTT2=
EXTT3=
EXTT4=
EXTT5=
EXTT6=
EXTT7=
EXTT8=
EXTT9=
EXTT10=
EXTT11=
EXTT12=
EXTT13=
EXTT14=
PLAYORDER=
